<svg xmlns="http://www.w3.org/2000/svg" style="display: none;">
  
    <symbol id="icon-at" viewBox="0 0 512 512">
      <path d="m314 221c0-20-5-36-15-48-10-11-24-17-42-17-12 0-24 3-36 8-11 6-22 14-31 25-9 10-17 23-23 39-6 16-8 33-8 51 0 21 5 38 15 50 10 11 24 17 43 17 18 0 35-6 50-19 15-13 27-28 35-47 8-19 12-39 12-59z m161 35c0 21-3 40-10 56-7 17-17 30-28 39-12 9-25 16-38 21-13 5-27 8-41 8-1 0-3 0-5 1-2 1-3 2-4 2-19 0-32-5-41-15-5-7-8-14-9-24-10 13-23 23-38 31-15 9-32 13-50 13-30 0-54-9-71-27-17-18-25-44-25-77 0-30 6-58 19-83 12-25 29-46 51-60 21-15 45-22 70-22 17 0 31 3 44 10 13 6 23 16 31 28l0-5 3-16c1-1 1-3 2-4 1-1 2-1 3-1l33 0c1 0 3 1 4 3 1 1 1 2 1 4l-34 176c-1 4-2 9-2 13 0 8 1 13 4 15 2 3 6 4 13 4 5 0 10-1 16-2 5 0 12-3 21-6 8-4 15-9 22-15 6-6 11-14 16-25 5-12 7-25 7-39 0-56-17-100-50-134-33-33-77-49-133-49-25 0-48 5-71 14-23 10-42 23-58 39-17 17-30 36-39 59-10 22-15 46-15 71 0 24 5 48 15 71 9 22 22 42 39 58 16 16 35 29 58 39 23 10 46 14 71 14 43 0 82-13 116-41 2-1 4-2 7-2 2 0 4 1 6 3l11 14c2 3 2 5 2 7 0 3-1 5-3 7-20 15-41 28-65 36-24 9-49 13-74 13-30 0-58-6-85-17-27-12-51-28-70-47-20-20-35-43-47-70-12-27-17-56-17-85 0-30 5-59 17-86 12-27 27-50 47-70 19-19 43-35 70-46 27-12 55-18 85-18 66 0 118 20 159 61 40 40 60 93 60 159z"/>
    </symbol>
  
    <symbol id="icon-bars" viewBox="0 0 512 512">
      <path d="m475 384l0 37c0 5-1 9-5 12-4 4-8 6-13 6l-402 0c-5 0-9-2-13-6-4-3-5-7-5-12l0-37c0-5 1-9 5-13 4-3 8-5 13-5l402 0c5 0 9 2 13 5 4 4 5 8 5 13z m0-146l0 36c0 5-1 10-5 13-4 4-8 6-13 6l-402 0c-5 0-9-2-13-6-4-3-5-8-5-13l0-36c0-5 1-10 5-13 4-4 8-6 13-6l402 0c5 0 9 2 13 6 4 3 5 8 5 13z m0-147l0 37c0 5-1 9-5 13-4 3-8 5-13 5l-402 0c-5 0-9-2-13-5-4-4-5-8-5-13l0-37c0-5 1-9 5-12 4-4 8-6 13-6l402 0c5 0 9 2 13 6 4 3 5 7 5 12z"/>
    </symbol>
  
    <symbol id="icon-github" viewBox="0 0 512 512">
      <path d="m475 256c0 48-14 91-41 129-28 38-64 65-109 79-5 1-8 1-11-2-2-2-3-5-3-8l0-61c0-18-5-32-15-40 11-1 20-3 29-5 9-3 18-6 27-11 9-6 17-12 23-19 6-8 11-18 15-30 4-13 6-27 6-43 0-23-8-43-23-59 7-18 7-37-2-59-5-1-13 0-23 4-10 3-19 8-26 12l-11 7c-18-5-36-7-55-7-19 0-37 2-55 7-3-2-7-5-12-8-5-3-13-6-24-11-11-4-19-5-24-4-9 22-9 41-2 59-15 16-23 36-23 59 0 16 2 30 6 42 4 13 9 23 15 30 6 8 14 14 23 20 9 5 18 8 27 11 8 2 18 4 29 5-8 7-12 17-14 29-4 2-8 4-13 5-4 1-10 1-16 1-6 0-13-2-19-6-6-4-11-10-16-18-3-6-8-11-14-15-5-4-10-6-14-7l-5-1c-4 0-7 1-9 2-1 1-2 2-1 3 0 1 1 3 2 4 2 1 3 2 4 3l2 2c4 2 8 5 13 11 4 5 7 10 9 14l2 7c3 7 7 13 13 17 6 5 12 8 19 9 7 1 14 2 20 2 6 0 12 0 16-1l6-1c0 7 0 16 1 25 0 10 0 15 0 16 0 3-2 6-4 8-2 3-6 3-11 2-45-14-81-41-109-79-27-38-41-81-41-129 0-40 9-77 29-110 20-34 46-60 80-80 33-20 70-29 110-29 40 0 77 9 110 29 34 20 60 46 80 80 20 33 29 70 29 110z"/>
    </symbol>
  
    <symbol id="icon-linkedin-square" viewBox="0 0 512 512">
      <path d="m104 404l66 0 0-198-66 0z m71-259c-1-10-4-19-11-25-6-6-15-10-26-10-11 0-20 4-27 10-7 6-11 15-11 25 0 9 4 17 10 24 7 7 16 10 27 10l0 0c11 0 20-3 27-10 7-7 11-15 11-24z m167 259l66 0 0-114c0-29-7-51-21-66-14-15-32-23-55-23-26 0-46 11-60 34l1 0 0-29-66 0c0 12 0 78 0 198l66 0 0-111c0-7 0-12 2-16 2-7 7-12 12-17 6-5 13-7 22-7 22 0 33 15 33 45z m133-285l0 274c0 23-8 42-24 58-16 16-35 24-58 24l-274 0c-23 0-42-8-58-24-16-16-24-35-24-58l0-274c0-23 8-42 24-58 16-16 35-24 58-24l274 0c23 0 42 8 58 24 16 16 24 35 24 58z"/>
    </symbol>
  
    <symbol id="icon-share-alt" viewBox="0 0 512 512">
      <path d="m384 293c25 0 47 8 65 26 18 18 26 40 26 65 0 25-8 47-26 65-18 18-40 26-65 26-25 0-47-8-65-26-18-18-26-40-26-65 0-2 0-6 0-10l-103-51c-17 16-38 24-62 24-25 0-47-8-65-26-18-18-26-40-26-65 0-25 8-47 26-65 18-18 40-26 65-26 24 0 45 8 62 24l103-51c0-4 0-8 0-10 0-25 8-47 26-65 18-18 40-26 65-26 25 0 47 8 65 26 18 18 26 40 26 65 0 25-8 47-26 65-18 18-40 26-65 26-24 0-45-8-62-24l-103 51c0 4 0 8 0 10 0 2 0 6 0 10l103 51c17-16 38-24 62-24z"/>
    </symbol>
  
    <symbol id="icon-file-text-o" viewBox="0 0 512 512">
      <path d="m456 109c5 5 10 12 14 21 4 9 5 18 5 25l0 330c0 7-2 14-8 19-5 5-11 8-19 8l-384 0c-8 0-14-3-19-8-6-5-8-12-8-19l0-458c0-7 2-14 8-19 5-5 11-8 19-8l256 0c8 0 16 2 25 6 9 4 17 8 22 13z m-127-70l0 107 108 0c-2-5-4-9-7-11l-89-90c-2-2-6-4-12-6z m110 436l0-292-119 0c-8 0-14-3-19-8-6-5-8-12-8-20l0-118-220 0 0 438z m-293-246c0-3 1-5 3-7 2-2 4-3 6-3l202 0c2 0 4 1 6 3 2 2 3 4 3 7l0 18c0 3-1 5-3 6-2 2-4 3-6 3l-202 0c-2 0-4-1-6-3-2-1-3-3-3-6z m211 64c2 0 4 0 6 2 2 2 3 4 3 7l0 18c0 3-1 5-3 7-2 1-4 2-6 2l-202 0c-2 0-4-1-6-2-2-2-3-4-3-7l0-18c0-3 1-5 3-7 2-2 4-2 6-2z m0 73c2 0 4 1 6 2 2 2 3 4 3 7l0 18c0 3-1 5-3 7-2 1-4 2-6 2l-202 0c-2 0-4-1-6-2-2-2-3-4-3-7l0-18c0-3 1-5 3-7 2-1 4-2 6-2z"/>
    </symbol>
  
    <symbol id="icon-twitter" viewBox="0 0 512 512">
      <path d="m481 117c-13 18-28 34-46 47 0 3 0 7 0 12 0 25-3 50-11 74-7 25-18 49-33 71-14 23-32 43-52 61-21 17-45 31-74 41-29 11-60 16-92 16-52 0-99-14-142-42 7 1 14 2 22 2 43 0 81-14 115-40-20 0-38-6-54-18-16-12-27-27-33-46 7 1 13 2 18 2 8 0 16-1 24-4-21-4-39-15-53-31-14-17-21-37-21-59l0-1c13 7 27 11 42 11-13-8-23-19-30-32-8-14-11-29-11-44 0-17 4-33 12-47 23 28 51 51 84 68 33 17 69 27 107 29-2-8-3-15-3-22 0-25 9-47 27-65 18-18 40-27 66-27 26 0 49 10 67 29 21-4 40-11 59-22-7 22-21 39-41 51 18-2 35-7 53-14z"/>
    </symbol>
  
</svg>
